<svg width="25" height="24" viewBox="0 0 25 24" fill="currentColor" xmlns="http://www.w3.org/2000/svg">
<path d="M12.48 2C6.73624 2 2.08 6.47715 2.08 12C2.08 17.5228 6.73624 22 12.48 22C18.2238 22 22.88 17.5228 22.88 12C22.88 9.34784 21.7843 6.8043 19.8339 4.92893C17.8835 3.05357 15.2383 2 12.48 2ZM12.48 5C14.2031 5 15.6 6.34315 15.6 8C15.6 9.65685 14.2031 11 12.48 11C10.7569 11 9.36 9.65685 9.36 8C9.36 6.34315 10.7569 5 12.48 5ZM18.3248 16.16C16.9514 17.9384 14.7837 18.9868 12.48 18.9868C10.1763 18.9868 8.00859 17.9384 6.6352 16.16C6.42638 15.8633 6.39861 15.4818 6.5624 15.16L6.7808 14.72C7.29548 13.671 8.39293 13.0012 9.5992 13H15.3608C16.5501 13.0015 17.6351 13.6531 18.1584 14.68L18.3976 15.15C18.5655 15.4745 18.5376 15.8609 18.3248 16.16Z"/>
</svg>
