<svg width="359" height="186" viewBox="0 0 359 186" fill="none" xmlns="http://www.w3.org/2000/svg">
<g clip-path="url(#clip0_11_1035)">
<rect y="2" width="359" height="184" rx="10" fill="#333333"/>
<ellipse cx="356.5" cy="218.5" rx="156.5" ry="137.5" fill="#91EB86"/>
<path d="M23.072 70.736H39.732V75.356H29.26V78.016H38.22V82.44H29.26V85.38H39.928V90H23.072V70.736ZM52.055 70.4C54.911 70.4 57.1697 71.1187 58.831 72.556C60.4924 73.9747 61.323 76.0093 61.323 78.66H55.415C55.415 77.54 55.1164 76.6533 54.519 76C53.9404 75.3467 53.1097 75.02 52.027 75.02C50.7764 75.02 49.8524 75.412 49.255 76.196C48.6764 76.98 48.387 78.072 48.387 79.472V81.264C48.387 82.6453 48.6764 83.7373 49.255 84.54C49.8524 85.324 50.7577 85.716 51.971 85.716C53.1657 85.716 54.071 85.408 54.687 84.792C55.303 84.176 55.611 83.308 55.611 82.188H61.323C61.323 84.82 60.511 86.836 58.887 88.236C57.2817 89.636 55.0044 90.336 52.055 90.336C48.7697 90.336 46.2777 89.496 44.579 87.816C42.899 86.136 42.059 83.6533 42.059 80.368C42.059 77.0827 42.899 74.6 44.579 72.92C46.2777 71.24 48.7697 70.4 52.055 70.4ZM73.832 70.4C77.1547 70.4 79.7213 71.2493 81.532 72.948C83.3427 74.6467 84.248 77.12 84.248 80.368C84.248 83.616 83.3427 86.0893 81.532 87.788C79.7213 89.4867 77.1547 90.336 73.832 90.336C70.5093 90.336 67.9427 89.496 66.132 87.816C64.34 86.1173 63.444 83.6347 63.444 80.368C63.444 77.1013 64.34 74.628 66.132 72.948C67.9427 71.2493 70.5093 70.4 73.832 70.4ZM73.832 75.02C72.5067 75.02 71.4987 75.4213 70.808 76.224C70.1173 77.0267 69.772 78.1093 69.772 79.472V81.264C69.772 82.6267 70.1173 83.7093 70.808 84.512C71.4987 85.3147 72.5067 85.716 73.832 85.716C75.1573 85.716 76.1653 85.3147 76.856 84.512C77.5653 83.7093 77.92 82.6267 77.92 81.264V79.472C77.92 78.1093 77.5653 77.0267 76.856 76.224C76.1653 75.4213 75.1573 75.02 73.832 75.02ZM107.176 75.664V90H100.988V75.664H94.6604V70.736H113.476V75.664H107.176ZM124.506 70.4C127.829 70.4 130.396 71.2493 132.206 72.948C134.017 74.6467 134.922 77.12 134.922 80.368C134.922 83.616 134.017 86.0893 132.206 87.788C130.396 89.4867 127.829 90.336 124.506 90.336C121.184 90.336 118.617 89.496 116.806 87.816C115.014 86.1173 114.118 83.6347 114.118 80.368C114.118 77.1013 115.014 74.628 116.806 72.948C118.617 71.2493 121.184 70.4 124.506 70.4ZM124.506 75.02C123.181 75.02 122.173 75.4213 121.482 76.224C120.792 77.0267 120.446 78.1093 120.446 79.472V81.264C120.446 82.6267 120.792 83.7093 121.482 84.512C122.173 85.3147 123.181 85.716 124.506 85.716C125.832 85.716 126.84 85.3147 127.53 84.512C128.24 83.7093 128.594 82.6267 128.594 81.264V79.472C128.594 78.1093 128.24 77.0267 127.53 76.224C126.84 75.4213 125.832 75.02 124.506 75.02ZM157.027 82.244C157.027 84.876 156.196 86.8827 154.535 88.264C152.873 89.6453 150.512 90.336 147.451 90.336C144.389 90.336 142.019 89.6453 140.339 88.264C138.677 86.8827 137.847 84.876 137.847 82.244V70.736H144.035V82.16C144.035 83.2427 144.324 84.1107 144.903 84.764C145.481 85.3987 146.321 85.716 147.423 85.716C148.524 85.716 149.364 85.3893 149.943 84.736C150.54 84.0827 150.839 83.224 150.839 82.16V70.736H157.027V82.244ZM179.047 76.644C179.047 77.82 178.73 78.884 178.095 79.836C177.46 80.788 176.536 81.488 175.323 81.936L179.607 90H172.663L169.247 82.972H166.951V90H160.763V70.736H172.551C173.932 70.736 175.108 71.0067 176.079 71.548C177.068 72.0707 177.806 72.7893 178.291 73.704C178.795 74.6 179.047 75.58 179.047 76.644ZM172.747 76.896C172.747 76.392 172.579 75.972 172.243 75.636C171.907 75.3 171.496 75.132 171.011 75.132H166.951V78.688H171.011C171.496 78.688 171.907 78.52 172.243 78.184C172.579 77.8293 172.747 77.4 172.747 76.896Z" fill="#91EB86"/>
<path d="M25.095 24.545H26.085V26.75C26.085 29.57 24.36 32.48 22.245 33.56L21.525 32.57C23.46 31.625 25.095 29.045 25.095 26.75V24.545ZM25.32 24.545H26.31V26.75C26.31 28.895 27.84 31.31 29.805 32.24L29.1 33.23C26.955 32.165 25.32 29.435 25.32 26.75V24.545ZM22.005 23.99H29.31V25.04H22.005V23.99ZM30.915 22.61H32.175V36.17H30.915V22.61ZM31.875 28.085H34.395V29.135H31.875V28.085ZM41.4108 24.725H45.4908V25.745H41.4108V24.725ZM41.4108 27.98H45.4908V29H41.4108V27.98ZM45.0408 22.625H46.2858V32.645H45.0408V22.625ZM37.6308 34.85H46.6608V35.87H37.6308V34.85ZM37.6308 31.61H38.8758V35.3H37.6308V31.61ZM38.8308 23.48C40.8258 23.48 42.3258 24.875 42.3258 26.87C42.3258 28.865 40.8258 30.26 38.8308 30.26C36.8358 30.26 35.3358 28.865 35.3358 26.87C35.3358 24.875 36.8358 23.48 38.8308 23.48ZM38.8308 24.575C37.5108 24.575 36.5358 25.535 36.5358 26.87C36.5358 28.22 37.5108 29.18 38.8308 29.18C40.1508 29.18 41.1408 28.22 41.1408 26.87C41.1408 25.535 40.1508 24.575 38.8308 24.575ZM49.1317 24.095H55.2667V25.1H49.1317V24.095ZM51.2467 27.965H52.4767V32.555H51.2467V27.965ZM54.7567 24.095H55.9717V24.815C55.9717 25.925 55.9717 27.695 55.5817 30.215L54.3517 30.095C54.7567 27.65 54.7567 25.91 54.7567 24.815V24.095ZM57.6817 22.61H58.9117V36.17H57.6817V22.61ZM58.5817 28.28H61.0867V29.33H58.5817V28.28ZM48.5317 33.215L48.3817 32.165C50.8417 32.165 54.1117 32.12 56.8567 31.775L56.9167 32.69C54.1117 33.14 50.9317 33.2 48.5317 33.215ZM75.2816 22.61H76.5266V30.77H75.2816V22.61ZM76.1816 26.21H78.5366V27.245H76.1816V26.21ZM68.0066 31.535H76.5266V35.99H68.0066V31.535ZM75.3116 32.54H69.2216V34.985H75.3116V32.54ZM66.0416 24.035H74.0516V25.055H66.0416V24.035ZM70.0466 25.715C71.9816 25.715 73.2866 26.675 73.2866 28.145C73.2866 29.615 71.9816 30.545 70.0466 30.545C68.0966 30.545 66.7916 29.615 66.7916 28.145C66.7916 26.675 68.0966 25.715 70.0466 25.715ZM70.0466 26.675C68.8016 26.675 67.9766 27.245 67.9766 28.145C67.9766 29.03 68.8016 29.6 70.0466 29.6C71.2616 29.6 72.1016 29.03 72.1016 28.145C72.1016 27.245 71.2616 26.675 70.0466 26.675ZM69.4166 22.49H70.6616V24.56H69.4166V22.49ZM81.6674 24.23H82.7174C82.7174 27.14 82.3274 30.335 80.3924 32.975L79.4174 32.405C81.2774 29.99 81.6674 27.155 81.6674 24.32V24.23ZM79.7024 24.23H82.2824V25.265H79.7024V24.23ZM84.6524 24.23H85.7174C85.7174 27.095 85.5374 30.905 83.4074 33.845L82.4174 33.275C84.4874 30.575 84.6524 27.05 84.6524 24.335V24.23ZM83.1674 24.23H85.3124V25.265H83.1674V24.23ZM89.7674 22.61H90.9674V36.17H89.7674V22.61ZM85.0874 27.935H87.5174V28.955H85.0874V27.935ZM87.2624 22.955H88.4324V35.48H87.2624V22.955ZM101.973 22.61H103.218V36.17H101.973V22.61ZM102.918 28.175H105.438V29.225H102.918V28.175ZM92.7182 24.77H100.713V25.79H92.7182V24.77ZM96.7682 26.915C98.6882 26.915 100.068 28.205 100.068 30.035C100.068 31.865 98.6882 33.155 96.7682 33.155C94.8632 33.155 93.4682 31.865 93.4682 30.035C93.4682 28.205 94.8632 26.915 96.7682 26.915ZM96.7682 27.95C95.5382 27.95 94.6532 28.805 94.6532 30.035C94.6532 31.25 95.5382 32.12 96.7682 32.12C97.9982 32.12 98.8832 31.25 98.8832 30.035C98.8832 28.805 97.9982 27.95 96.7682 27.95ZM96.1232 22.775H97.3682V25.235H96.1232V22.775ZM107.834 26.675H117.044V27.695H107.834V26.675ZM106.169 29.51H118.469V30.53H106.169V29.51ZM107.834 23.105H109.064V27.185H107.834V23.105ZM107.744 34.82H117.119V35.84H107.744V34.82ZM107.744 31.88H108.974V35.09H107.744V31.88ZM129.769 25.625H133.864V26.66H129.769V25.625ZM129.769 29.915H133.864V30.95H129.769V29.915ZM127.279 23.645C129.244 23.645 130.654 25.49 130.654 28.37C130.654 31.265 129.244 33.11 127.279 33.11C125.299 33.11 123.904 31.265 123.904 28.37C123.904 25.49 125.299 23.645 127.279 23.645ZM127.279 24.77C125.974 24.77 125.074 26.18 125.074 28.37C125.074 30.575 125.974 32.015 127.279 32.015C128.584 32.015 129.484 30.575 129.484 28.37C129.484 26.18 128.584 24.77 127.279 24.77ZM133.594 22.595H134.824V36.185H133.594V22.595ZM147.285 22.61H148.47V31.19H147.285V22.61ZM145.08 26.285H147.645V27.32H145.08V26.285ZM144.39 22.88H145.56V30.71H144.39V22.88ZM136.98 24.23H143.85V25.22H136.98V24.23ZM140.43 25.91C142.125 25.91 143.31 26.84 143.31 28.235C143.31 29.645 142.125 30.56 140.43 30.56C138.72 30.56 137.535 29.645 137.535 28.235C137.535 26.84 138.72 25.91 140.43 25.91ZM140.43 26.84C139.365 26.84 138.645 27.395 138.645 28.235C138.645 29.09 139.365 29.63 140.43 29.63C141.48 29.63 142.2 29.09 142.2 28.235C142.2 27.395 141.48 26.84 140.43 26.84ZM139.815 22.715H141.03V24.785H139.815V22.715ZM144.03 31.43C146.85 31.43 148.545 32.27 148.545 33.785C148.545 35.285 146.85 36.14 144.03 36.14C141.18 36.14 139.5 35.285 139.5 33.785C139.5 32.27 141.18 31.43 144.03 31.43ZM144.03 32.39C141.945 32.39 140.73 32.885 140.73 33.785C140.73 34.685 141.945 35.195 144.03 35.195C146.085 35.195 147.315 34.685 147.315 33.785C147.315 32.885 146.085 32.39 144.03 32.39ZM24.585 43.45H25.575V45.265C25.575 47.29 24.405 49.42 22.41 50.305L21.735 49.33C23.52 48.55 24.585 46.795 24.585 45.265V43.45ZM24.78 43.45H25.77V45.265C25.77 46.765 26.79 48.295 28.53 48.97L27.855 49.915C25.905 49.135 24.78 47.26 24.78 45.265V43.45ZM31.98 42.625H33.165V50.98H31.98V42.625ZM29.82 46.24H32.385V47.26H29.82V46.24ZM29.07 42.88H30.255V50.545H29.07V42.88ZM28.71 51.28C31.5 51.28 33.24 52.18 33.24 53.725C33.24 55.255 31.5 56.14 28.71 56.14C25.905 56.14 24.195 55.255 24.195 53.725C24.195 52.18 25.905 51.28 28.71 51.28ZM28.71 52.255C26.67 52.255 25.41 52.795 25.41 53.725C25.41 54.64 26.67 55.18 28.71 55.18C30.75 55.18 31.995 54.64 31.995 53.725C31.995 52.795 30.75 52.255 28.71 52.255ZM35.6658 51.775H36.5508C38.6958 51.775 39.9708 51.73 41.4858 51.43L41.6208 52.465C40.0458 52.78 38.7258 52.825 36.5508 52.825H35.6658V51.775ZM35.6658 44.155H41.0058V45.175H36.8508V52.165H35.6658V44.155ZM36.4908 47.74H40.7958V48.745H36.4908V47.74ZM45.4608 42.61H46.6608V56.17H45.4608V42.61ZM43.3158 48.04H45.9108V49.075H43.3158V48.04ZM42.4758 42.895H43.6608V55.495H42.4758V42.895ZM53.3407 43.66H59.3407V44.68H53.3407V43.66ZM55.3807 46.69H56.6107V50.08H55.3807V46.69ZM58.8457 43.66H60.0757V44.38C60.0757 45.265 60.0757 46.615 59.7157 48.4L58.5007 48.265C58.8457 46.48 58.8457 45.25 58.8457 44.38V43.66ZM61.9207 42.61H63.1657V52.825H61.9207V42.61ZM62.5957 47.02H65.1007V48.055H62.5957V47.02ZM54.6007 54.85H63.6007V55.87H54.6007V54.85ZM54.6007 51.88H55.8307V55.165H54.6007V51.88ZM52.6507 50.665L52.5157 49.645C54.9307 49.645 58.2607 49.585 61.0057 49.21L61.0957 50.11C58.2757 50.605 55.0357 50.665 52.6507 50.665ZM66.7316 43.45H72.7316V44.47H66.7316V43.45ZM68.7716 46.39H70.0016V49.63H68.7716V46.39ZM72.2366 43.45H73.4516V44.185C73.4516 45.04 73.4516 46.255 73.1066 47.86L71.8916 47.755C72.2366 46.165 72.2366 45.04 72.2366 44.185V43.45ZM75.3116 42.61H76.5566V51.07H75.3116V42.61ZM75.9866 46.3H78.4916V47.35H75.9866V46.3ZM66.0566 50.14L65.9066 49.105C68.3666 49.105 71.6516 49.06 74.3966 48.7L74.4866 49.615C71.6816 50.08 68.4716 50.14 66.0566 50.14ZM72.1766 51.235C74.9666 51.235 76.6916 52.135 76.6916 53.68C76.6916 55.24 74.9666 56.14 72.1766 56.14C69.3866 56.14 67.6916 55.24 67.6916 53.68C67.6916 52.135 69.3866 51.235 72.1766 51.235ZM72.1766 52.21C70.1666 52.21 68.9366 52.75 68.9366 53.68C68.9366 54.61 70.1666 55.15 72.1766 55.15C74.2016 55.15 75.4166 54.61 75.4166 53.68C75.4166 52.75 74.2016 52.21 72.1766 52.21ZM84.6165 43.015H94.5765V43.99H84.6165V43.015ZM84.6765 46.57H94.5165V47.53H84.6765V46.57ZM86.6715 43.39H87.9165V47.2H86.6715V43.39ZM91.2915 43.39H92.5215V47.2H91.2915V43.39ZM83.4765 48.655H95.7315V49.66H83.4765V48.655ZM84.9615 50.845H94.1715V53.815H86.2215V55.45H84.9915V52.93H92.9415V51.775H84.9615V50.845ZM84.9915 55.075H94.5765V56.02H84.9915V55.075ZM107.112 42.61H108.297V51.85H107.112V42.61ZM104.937 46.15H107.487V47.17H104.937V46.15ZM104.127 42.865H105.297V50.665H104.127V42.865ZM97.4973 49.465H98.3673C100.287 49.465 101.697 49.405 103.332 49.06L103.467 50.065C101.757 50.41 100.332 50.47 98.3673 50.47H97.4973V49.465ZM97.4673 43.675H102.567V47.47H98.6973V50.125H97.4973V46.525H101.367V44.68H97.4673V43.675ZM103.182 51.235H104.232V51.58C104.232 53.965 101.787 55.645 99.0723 56.125L98.5773 55.15C100.962 54.79 103.182 53.335 103.182 51.58V51.235ZM103.347 51.235H104.412V51.58C104.412 53.335 106.632 54.79 109.017 55.15L108.522 56.125C105.807 55.645 103.347 53.965 103.347 51.58V51.235ZM110.258 49.435H122.513V50.455H110.258V49.435ZM115.763 47.62H116.993V49.96H115.763V47.62ZM111.398 43.03H121.358V44.05H111.398V43.03ZM111.458 46.885H121.298V47.905H111.458V46.885ZM113.453 43.48H114.698V47.545H113.453V43.48ZM118.073 43.48H119.303V47.545H118.073V43.48ZM111.758 51.715H121.013V55.99H111.758V51.715ZM119.798 52.705H112.988V54.985H119.798V52.705Z" fill="white"/>
<path d="M21.99 112V104.3H26.61V105.202H23.035V107.545H26.115V108.425H23.035V111.098H26.61V112H21.99ZM30.6426 112.132C29.9752 112.132 29.3849 111.974 28.8716 111.659C28.3582 111.336 27.9586 110.882 27.6726 110.295C27.3866 109.701 27.2436 108.997 27.2436 108.183C27.2436 107.398 27.3866 106.705 27.6726 106.104C27.9659 105.495 28.3766 105.022 28.9046 104.685C29.4399 104.34 30.0632 104.168 30.7746 104.168C31.1412 104.168 31.4749 104.205 31.7756 104.278C32.0762 104.344 32.3586 104.439 32.6226 104.564L32.3036 105.444C32.0762 105.334 31.8416 105.246 31.5996 105.18C31.3649 105.114 31.0862 105.081 30.7636 105.081C30.2942 105.081 29.8726 105.202 29.4986 105.444C29.1319 105.686 28.8422 106.034 28.6296 106.489C28.4169 106.944 28.3106 107.494 28.3106 108.139C28.3106 108.755 28.4132 109.294 28.6186 109.756C28.8312 110.218 29.1209 110.577 29.4876 110.834C29.8616 111.091 30.2869 111.219 30.7636 111.219C31.1229 111.219 31.4346 111.175 31.6986 111.087C31.9626 110.999 32.2192 110.885 32.4686 110.746L32.7876 111.615C32.5162 111.762 32.2046 111.886 31.8526 111.989C31.5079 112.084 31.1046 112.132 30.6426 112.132ZM36.6101 112.132C36.0381 112.132 35.5284 112.029 35.0811 111.824C34.6338 111.611 34.2524 111.325 33.9371 110.966C33.6291 110.599 33.3908 110.174 33.2221 109.69C33.0608 109.206 32.9801 108.689 32.9801 108.139C32.9801 107.384 33.1231 106.709 33.4091 106.115C33.7024 105.514 34.1204 105.041 34.6631 104.696C35.2058 104.344 35.8548 104.168 36.6101 104.168C37.1748 104.168 37.6808 104.271 38.1281 104.476C38.5828 104.681 38.9678 104.967 39.2831 105.334C39.5984 105.701 39.8368 106.122 39.9981 106.599C40.1668 107.076 40.2511 107.589 40.2511 108.139C40.2511 108.689 40.1668 109.206 39.9981 109.69C39.8368 110.174 39.5984 110.599 39.2831 110.966C38.9678 111.325 38.5864 111.611 38.1391 111.824C37.6918 112.029 37.1821 112.132 36.6101 112.132ZM36.6101 111.23C37.1748 111.23 37.6478 111.094 38.0291 110.823C38.4104 110.552 38.6964 110.185 38.8871 109.723C39.0851 109.254 39.1841 108.726 39.1841 108.139C39.1841 107.743 39.1254 107.362 39.0081 106.995C38.8908 106.628 38.7221 106.302 38.5021 106.016C38.2821 105.723 38.0108 105.492 37.6881 105.323C37.3728 105.154 37.0134 105.07 36.6101 105.07C36.0748 105.07 35.6128 105.206 35.2241 105.477C34.8428 105.748 34.5494 106.115 34.3441 106.577C34.1461 107.039 34.0471 107.56 34.0471 108.139C34.0471 108.535 34.1021 108.92 34.2121 109.294C34.3294 109.661 34.4981 109.991 34.7181 110.284C34.9381 110.577 35.2058 110.808 35.5211 110.977C35.8438 111.146 36.2068 111.23 36.6101 111.23ZM45.7551 112V105.224H43.3901V104.3H49.1651V105.224H46.8001V112H45.7551ZM52.7132 112.132C52.1412 112.132 51.6316 112.029 51.1842 111.824C50.7369 111.611 50.3556 111.325 50.0402 110.966C49.7322 110.599 49.4939 110.174 49.3252 109.69C49.1639 109.206 49.0832 108.689 49.0832 108.139C49.0832 107.384 49.2262 106.709 49.5122 106.115C49.8056 105.514 50.2236 105.041 50.7662 104.696C51.3089 104.344 51.9579 104.168 52.7132 104.168C53.2779 104.168 53.7839 104.271 54.2312 104.476C54.6859 104.681 55.0709 104.967 55.3862 105.334C55.7016 105.701 55.9399 106.122 56.1012 106.599C56.2699 107.076 56.3542 107.589 56.3542 108.139C56.3542 108.689 56.2699 109.206 56.1012 109.69C55.9399 110.174 55.7016 110.599 55.3862 110.966C55.0709 111.325 54.6896 111.611 54.2422 111.824C53.7949 112.029 53.2852 112.132 52.7132 112.132ZM52.7132 111.23C53.2779 111.23 53.7509 111.094 54.1322 110.823C54.5136 110.552 54.7996 110.185 54.9902 109.723C55.1882 109.254 55.2872 108.726 55.2872 108.139C55.2872 107.743 55.2286 107.362 55.1112 106.995C54.9939 106.628 54.8252 106.302 54.6052 106.016C54.3852 105.723 54.1139 105.492 53.7912 105.323C53.4759 105.154 53.1166 105.07 52.7132 105.07C52.1779 105.07 51.7159 105.206 51.3272 105.477C50.9459 105.748 50.6526 106.115 50.4472 106.577C50.2492 107.039 50.1502 107.56 50.1502 108.139C50.1502 108.535 50.2052 108.92 50.3152 109.294C50.4326 109.661 50.6012 109.991 50.8212 110.284C51.0412 110.577 51.3089 110.808 51.6242 110.977C51.9469 111.146 52.3099 111.23 52.7132 111.23ZM60.1674 112.132C59.2801 112.132 58.5834 111.868 58.0774 111.34C57.5714 110.812 57.3184 110.057 57.3184 109.074V104.3H58.3634V108.909C58.3634 109.642 58.5137 110.211 58.8144 110.614C59.1151 111.017 59.5661 111.219 60.1674 111.219C60.7907 111.219 61.2564 111.025 61.5644 110.636C61.8724 110.24 62.0264 109.664 62.0264 108.909V104.3H63.0384V109.03C63.0384 109.675 62.9174 110.233 62.6754 110.702C62.4407 111.164 62.1071 111.52 61.6744 111.769C61.2491 112.011 60.7467 112.132 60.1674 112.132ZM68.9325 112.132L67.9755 110.042C67.7335 109.521 67.4292 109.151 67.0625 108.931C66.6959 108.711 66.2265 108.601 65.6545 108.601H65.4895V112H64.4445V104.322C64.8332 104.285 65.2035 104.26 65.5555 104.245C65.9149 104.223 66.2962 104.212 66.6995 104.212C67.6382 104.212 68.3422 104.403 68.8115 104.784C69.2882 105.165 69.5265 105.657 69.5265 106.258C69.5265 106.793 69.3652 107.226 69.0425 107.556C68.7272 107.879 68.2689 108.121 67.6675 108.282C67.8655 108.37 68.0415 108.476 68.1955 108.601C68.3495 108.718 68.4962 108.88 68.6355 109.085C68.7822 109.283 68.9289 109.543 69.0755 109.866L69.9115 111.67L68.9325 112.132ZM65.4895 107.721H66.6995C67.2275 107.721 67.6565 107.604 67.9865 107.369C68.3165 107.134 68.4815 106.797 68.4815 106.357C68.4815 105.99 68.3275 105.69 68.0195 105.455C67.7115 105.213 67.2715 105.092 66.6995 105.092C66.4502 105.092 66.2265 105.096 66.0285 105.103C65.8305 105.11 65.6509 105.121 65.4895 105.136V107.721ZM74.4116 106.775H76.2926V107.534H74.4116V106.775ZM77.9536 102.914H78.8336V112.858H77.9536V102.914ZM75.9846 103.123H76.8536V112.363H75.9846V103.123ZM72.6186 103.739C73.9056 103.739 74.7416 105.07 74.7416 107.204C74.7416 109.338 73.9056 110.669 72.6186 110.669C71.3316 110.669 70.5066 109.338 70.5066 107.204C70.5066 105.07 71.3316 103.739 72.6186 103.739ZM72.6186 104.586C71.8376 104.586 71.3426 105.598 71.3426 107.204C71.3426 108.81 71.8376 109.822 72.6186 109.822C73.4106 109.822 73.9056 108.81 73.9056 107.204C73.9056 105.598 73.4106 104.586 72.6186 104.586ZM90.5436 102.914H91.4236V112.858H90.5436V102.914ZM88.8606 106.896H90.7746V107.655H88.8606V106.896ZM88.2886 103.134H89.1466V112.352H88.2886V103.134ZM83.3386 109.646H83.9876C85.4396 109.646 86.4296 109.591 87.5846 109.349L87.6726 110.108C86.4846 110.361 85.4836 110.405 83.9876 110.405H83.3386V109.646ZM83.3386 104.124H87.0346V104.872H84.2406V109.987H83.3386V104.124ZM92.6757 104.608H97.6037V105.356H92.6757V104.608ZM95.1397 106.016C96.3827 106.016 97.2847 106.951 97.2847 108.293C97.2847 109.624 96.3827 110.559 95.1397 110.559C93.9077 110.559 93.0057 109.624 93.0057 108.293C93.0057 106.951 93.9077 106.016 95.1397 106.016ZM95.1397 106.797C94.3807 106.797 93.8307 107.413 93.8307 108.293C93.8307 109.173 94.3807 109.789 95.1397 109.789C95.9097 109.789 96.4707 109.173 96.4707 108.293C96.4707 107.413 95.9097 106.797 95.1397 106.797ZM100.233 102.914H101.113V112.858H100.233V102.914ZM98.6487 107.094H100.53V107.853H98.6487V107.094ZM98.1097 103.134H98.9677V112.374H98.1097V103.134ZM94.6997 103.2H95.6017V105.07H94.6997V103.2ZM107.37 106.28H110.142V107.028H107.37V106.28ZM104.972 103.772H105.72V105.543C105.72 107.776 104.543 109.91 102.97 110.757L102.387 110.031C103.85 109.305 104.972 107.391 104.972 105.543V103.772ZM105.148 103.772H105.885V105.543C105.885 107.358 107.007 109.162 108.448 109.844L107.909 110.581C106.303 109.767 105.148 107.721 105.148 105.543V103.772ZM109.691 102.903H110.593V112.869H109.691V102.903ZM117.463 104.333H118.189V105.95C118.189 108.018 116.924 110.152 115.373 110.944L114.845 110.218C116.264 109.525 117.463 107.633 117.463 105.95V104.333ZM117.628 104.333H118.354V105.95C118.354 107.523 119.476 109.294 120.917 109.976L120.4 110.702C118.827 109.921 117.628 107.919 117.628 105.95V104.333ZM115.197 103.926H120.554V104.696H115.197V103.926ZM121.731 102.914H122.655V112.858H121.731V102.914ZM122.435 106.929H124.283V107.699H122.435V106.929ZM128.637 106.467H130.54V107.226H128.637V106.467ZM126.778 103.849H127.493V105.741C127.493 107.82 126.624 109.833 125.172 110.724L124.6 110.031C125.964 109.228 126.778 107.446 126.778 105.741V103.849ZM126.954 103.849H127.658V105.708C127.658 107.303 128.406 108.997 129.715 109.789L129.187 110.504C127.757 109.624 126.954 107.644 126.954 105.708V103.849ZM132.289 102.914H133.169V112.858H132.289V102.914ZM130.276 103.123H131.134V112.363H130.276V103.123ZM141.164 102.914H142.077V112.858H141.164V102.914ZM141.857 106.995H143.705V107.765H141.857V106.995ZM134.377 104.498H140.24V105.246H134.377V104.498ZM137.347 106.071C138.755 106.071 139.767 107.017 139.767 108.359C139.767 109.701 138.755 110.647 137.347 110.647C135.95 110.647 134.927 109.701 134.927 108.359C134.927 107.017 135.95 106.071 137.347 106.071ZM137.347 106.83C136.445 106.83 135.796 107.457 135.796 108.359C135.796 109.25 136.445 109.888 137.347 109.888C138.249 109.888 138.898 109.25 138.898 108.359C138.898 107.457 138.249 106.83 137.347 106.83ZM136.874 103.035H137.787V104.839H136.874V103.035ZM151.711 102.914H152.591V112.858H151.711V102.914ZM147.399 106.973H149.907V107.71H147.399V106.973ZM149.643 103.167H150.501V112.352H149.643V103.167ZM147.52 104.168H148.4C148.4 106.775 147.355 109.118 144.671 110.713L144.132 110.064C146.475 108.656 147.52 106.676 147.52 104.333V104.168ZM144.572 104.168H147.861V104.916H144.572V104.168ZM163.542 102.914H164.455V107.974H163.542V102.914ZM164.059 105.048H165.918V105.807H164.059V105.048ZM158.141 108.447H164.455V110.889H159.065V112.374H158.163V110.196H163.564V109.173H158.141V108.447ZM158.163 111.989H164.818V112.726H158.163V111.989ZM159.483 103.266C160.979 103.266 162.057 104.179 162.057 105.477C162.057 106.786 160.979 107.699 159.483 107.699C158.009 107.699 156.92 106.786 156.92 105.477C156.92 104.179 158.009 103.266 159.483 103.266ZM159.483 104.014C158.526 104.014 157.811 104.619 157.811 105.477C157.811 106.346 158.526 106.951 159.483 106.951C160.462 106.951 161.177 106.346 161.177 105.477C161.177 104.619 160.462 104.014 159.483 104.014ZM169.095 103.673C170.558 103.673 171.592 105.026 171.592 107.138C171.592 109.261 170.558 110.614 169.095 110.614C167.632 110.614 166.598 109.261 166.598 107.138C166.598 105.026 167.632 103.673 169.095 103.673ZM169.095 104.498C168.127 104.498 167.467 105.532 167.467 107.138C167.467 108.755 168.127 109.811 169.095 109.811C170.052 109.811 170.723 108.755 170.723 107.138C170.723 105.532 170.052 104.498 169.095 104.498ZM173.176 102.914H174.1V112.858H173.176V102.914ZM173.88 106.885H175.728V107.655H173.88V106.885ZM176.167 110.834H185.176V111.593H176.167V110.834ZM180.193 108.458H181.106V111.054H180.193V108.458ZM177.223 103.618H178.125V105.389H183.196V103.618H184.098V108.7H177.223V103.618ZM178.125 106.126V107.952H183.196V106.126H178.125ZM193.116 102.914H194.029V112.858H193.116V102.914ZM190.201 103.981H191.103C191.103 106.863 189.805 109.382 186.483 111.01L185.999 110.273C188.87 108.887 190.201 106.775 190.201 104.135V103.981ZM186.45 103.981H190.597V104.729H186.45V103.981Z" fill="white"/>
</g>
<defs>
<clipPath id="clip0_11_1035">
<rect width="359" height="186" rx="10" fill="white"/>
</clipPath>
</defs>
</svg>
