<svg width="359" height="186" viewBox="0 0 359 186" fill="none" xmlns="http://www.w3.org/2000/svg">
<g clip-path="url(#clip0_11_1035)">
<rect y="2" width="359" height="184" rx="10" fill="#333333"/>
<ellipse cx="356.5" cy="218.5" rx="156.5" ry="137.5" fill="#91EB86"/>
<path d="M23.072 78.736H39.732V83.356H29.26V86.016H38.22V90.44H29.26V93.38H39.928V98H23.072V78.736ZM52.055 78.4C54.911 78.4 57.1697 79.1187 58.831 80.556C60.4924 81.9747 61.323 84.0093 61.323 86.66H55.415C55.415 85.54 55.1164 84.6533 54.519 84C53.9404 83.3467 53.1097 83.02 52.027 83.02C50.7764 83.02 49.8524 83.412 49.255 84.196C48.6764 84.98 48.387 86.072 48.387 87.472V89.264C48.387 90.6453 48.6764 91.7373 49.255 92.54C49.8524 93.324 50.7577 93.716 51.971 93.716C53.1657 93.716 54.071 93.408 54.687 92.792C55.303 92.176 55.611 91.308 55.611 90.188H61.323C61.323 92.82 60.511 94.836 58.887 96.236C57.2817 97.636 55.0044 98.336 52.055 98.336C48.7697 98.336 46.2777 97.496 44.579 95.816C42.899 94.136 42.059 91.6533 42.059 88.368C42.059 85.0827 42.899 82.6 44.579 80.92C46.2777 79.24 48.7697 78.4 52.055 78.4ZM73.832 78.4C77.1547 78.4 79.7213 79.2493 81.532 80.948C83.3427 82.6467 84.248 85.12 84.248 88.368C84.248 91.616 83.3427 94.0893 81.532 95.788C79.7213 97.4867 77.1547 98.336 73.832 98.336C70.5093 98.336 67.9427 97.496 66.132 95.816C64.34 94.1173 63.444 91.6347 63.444 88.368C63.444 85.1013 64.34 82.628 66.132 80.948C67.9427 79.2493 70.5093 78.4 73.832 78.4ZM73.832 83.02C72.5067 83.02 71.4987 83.4213 70.808 84.224C70.1173 85.0267 69.772 86.1093 69.772 87.472V89.264C69.772 90.6267 70.1173 91.7093 70.808 92.512C71.4987 93.3147 72.5067 93.716 73.832 93.716C75.1573 93.716 76.1653 93.3147 76.856 92.512C77.5653 91.7093 77.92 90.6267 77.92 89.264V87.472C77.92 86.1093 77.5653 85.0267 76.856 84.224C76.1653 83.4213 75.1573 83.02 73.832 83.02ZM107.176 83.664V98H100.988V83.664H94.6604V78.736H113.476V83.664H107.176ZM124.506 78.4C127.829 78.4 130.396 79.2493 132.206 80.948C134.017 82.6467 134.922 85.12 134.922 88.368C134.922 91.616 134.017 94.0893 132.206 95.788C130.396 97.4867 127.829 98.336 124.506 98.336C121.184 98.336 118.617 97.496 116.806 95.816C115.014 94.1173 114.118 91.6347 114.118 88.368C114.118 85.1013 115.014 82.628 116.806 80.948C118.617 79.2493 121.184 78.4 124.506 78.4ZM124.506 83.02C123.181 83.02 122.173 83.4213 121.482 84.224C120.792 85.0267 120.446 86.1093 120.446 87.472V89.264C120.446 90.6267 120.792 91.7093 121.482 92.512C122.173 93.3147 123.181 93.716 124.506 93.716C125.832 93.716 126.84 93.3147 127.53 92.512C128.24 91.7093 128.594 90.6267 128.594 89.264V87.472C128.594 86.1093 128.24 85.0267 127.53 84.224C126.84 83.4213 125.832 83.02 124.506 83.02ZM157.027 90.244C157.027 92.876 156.196 94.8827 154.535 96.264C152.873 97.6453 150.512 98.336 147.451 98.336C144.389 98.336 142.019 97.6453 140.339 96.264C138.677 94.8827 137.847 92.876 137.847 90.244V78.736H144.035V90.16C144.035 91.2427 144.324 92.1107 144.903 92.764C145.481 93.3987 146.321 93.716 147.423 93.716C148.524 93.716 149.364 93.3893 149.943 92.736C150.54 92.0827 150.839 91.224 150.839 90.16V78.736H157.027V90.244ZM179.047 84.644C179.047 85.82 178.73 86.884 178.095 87.836C177.46 88.788 176.536 89.488 175.323 89.936L179.607 98H172.663L169.247 90.972H166.951V98H160.763V78.736H172.551C173.932 78.736 175.108 79.0067 176.079 79.548C177.068 80.0707 177.806 80.7893 178.291 81.704C178.795 82.6 179.047 83.58 179.047 84.644ZM172.747 84.896C172.747 84.392 172.579 83.972 172.243 83.636C171.907 83.3 171.496 83.132 171.011 83.132H166.951V86.688H171.011C171.496 86.688 171.907 86.52 172.243 86.184C172.579 85.8293 172.747 85.4 172.747 84.896Z" fill="#91EB86"/>
<path d="M25.095 32.545H26.085V34.75C26.085 37.57 24.36 40.48 22.245 41.56L21.525 40.57C23.46 39.625 25.095 37.045 25.095 34.75V32.545ZM25.32 32.545H26.31V34.75C26.31 36.895 27.84 39.31 29.805 40.24L29.1 41.23C26.955 40.165 25.32 37.435 25.32 34.75V32.545ZM22.005 31.99H29.31V33.04H22.005V31.99ZM30.915 30.61H32.175V44.17H30.915V30.61ZM31.875 36.085H34.395V37.135H31.875V36.085ZM41.4108 32.725H45.4908V33.745H41.4108V32.725ZM41.4108 35.98H45.4908V37H41.4108V35.98ZM45.0408 30.625H46.2858V40.645H45.0408V30.625ZM37.6308 42.85H46.6608V43.87H37.6308V42.85ZM37.6308 39.61H38.8758V43.3H37.6308V39.61ZM38.8308 31.48C40.8258 31.48 42.3258 32.875 42.3258 34.87C42.3258 36.865 40.8258 38.26 38.8308 38.26C36.8358 38.26 35.3358 36.865 35.3358 34.87C35.3358 32.875 36.8358 31.48 38.8308 31.48ZM38.8308 32.575C37.5108 32.575 36.5358 33.535 36.5358 34.87C36.5358 36.22 37.5108 37.18 38.8308 37.18C40.1508 37.18 41.1408 36.22 41.1408 34.87C41.1408 33.535 40.1508 32.575 38.8308 32.575ZM49.1317 32.095H55.2667V33.1H49.1317V32.095ZM51.2467 35.965H52.4767V40.555H51.2467V35.965ZM54.7567 32.095H55.9717V32.815C55.9717 33.925 55.9717 35.695 55.5817 38.215L54.3517 38.095C54.7567 35.65 54.7567 33.91 54.7567 32.815V32.095ZM57.6817 30.61H58.9117V44.17H57.6817V30.61ZM58.5817 36.28H61.0867V37.33H58.5817V36.28ZM48.5317 41.215L48.3817 40.165C50.8417 40.165 54.1117 40.12 56.8567 39.775L56.9167 40.69C54.1117 41.14 50.9317 41.2 48.5317 41.215ZM75.2816 30.61H76.5266V38.77H75.2816V30.61ZM76.1816 34.21H78.5366V35.245H76.1816V34.21ZM68.0066 39.535H76.5266V43.99H68.0066V39.535ZM75.3116 40.54H69.2216V42.985H75.3116V40.54ZM66.0416 32.035H74.0516V33.055H66.0416V32.035ZM70.0466 33.715C71.9816 33.715 73.2866 34.675 73.2866 36.145C73.2866 37.615 71.9816 38.545 70.0466 38.545C68.0966 38.545 66.7916 37.615 66.7916 36.145C66.7916 34.675 68.0966 33.715 70.0466 33.715ZM70.0466 34.675C68.8016 34.675 67.9766 35.245 67.9766 36.145C67.9766 37.03 68.8016 37.6 70.0466 37.6C71.2616 37.6 72.1016 37.03 72.1016 36.145C72.1016 35.245 71.2616 34.675 70.0466 34.675ZM69.4166 30.49H70.6616V32.56H69.4166V30.49ZM81.6674 32.23H82.7174C82.7174 35.14 82.3274 38.335 80.3924 40.975L79.4174 40.405C81.2774 37.99 81.6674 35.155 81.6674 32.32V32.23ZM79.7024 32.23H82.2824V33.265H79.7024V32.23ZM84.6524 32.23H85.7174C85.7174 35.095 85.5374 38.905 83.4074 41.845L82.4174 41.275C84.4874 38.575 84.6524 35.05 84.6524 32.335V32.23ZM83.1674 32.23H85.3124V33.265H83.1674V32.23ZM89.7674 30.61H90.9674V44.17H89.7674V30.61ZM85.0874 35.935H87.5174V36.955H85.0874V35.935ZM87.2624 30.955H88.4324V43.48H87.2624V30.955ZM101.973 30.61H103.218V44.17H101.973V30.61ZM102.918 36.175H105.438V37.225H102.918V36.175ZM92.7182 32.77H100.713V33.79H92.7182V32.77ZM96.7682 34.915C98.6882 34.915 100.068 36.205 100.068 38.035C100.068 39.865 98.6882 41.155 96.7682 41.155C94.8632 41.155 93.4682 39.865 93.4682 38.035C93.4682 36.205 94.8632 34.915 96.7682 34.915ZM96.7682 35.95C95.5382 35.95 94.6532 36.805 94.6532 38.035C94.6532 39.25 95.5382 40.12 96.7682 40.12C97.9982 40.12 98.8832 39.25 98.8832 38.035C98.8832 36.805 97.9982 35.95 96.7682 35.95ZM96.1232 30.775H97.3682V33.235H96.1232V30.775ZM107.834 34.675H117.044V35.695H107.834V34.675ZM106.169 37.51H118.469V38.53H106.169V37.51ZM107.834 31.105H109.064V35.185H107.834V31.105ZM107.744 42.82H117.119V43.84H107.744V42.82ZM107.744 39.88H108.974V43.09H107.744V39.88ZM129.769 33.625H133.864V34.66H129.769V33.625ZM129.769 37.915H133.864V38.95H129.769V37.915ZM127.279 31.645C129.244 31.645 130.654 33.49 130.654 36.37C130.654 39.265 129.244 41.11 127.279 41.11C125.299 41.11 123.904 39.265 123.904 36.37C123.904 33.49 125.299 31.645 127.279 31.645ZM127.279 32.77C125.974 32.77 125.074 34.18 125.074 36.37C125.074 38.575 125.974 40.015 127.279 40.015C128.584 40.015 129.484 38.575 129.484 36.37C129.484 34.18 128.584 32.77 127.279 32.77ZM133.594 30.595H134.824V44.185H133.594V30.595ZM147.285 30.61H148.47V39.19H147.285V30.61ZM145.08 34.285H147.645V35.32H145.08V34.285ZM144.39 30.88H145.56V38.71H144.39V30.88ZM136.98 32.23H143.85V33.22H136.98V32.23ZM140.43 33.91C142.125 33.91 143.31 34.84 143.31 36.235C143.31 37.645 142.125 38.56 140.43 38.56C138.72 38.56 137.535 37.645 137.535 36.235C137.535 34.84 138.72 33.91 140.43 33.91ZM140.43 34.84C139.365 34.84 138.645 35.395 138.645 36.235C138.645 37.09 139.365 37.63 140.43 37.63C141.48 37.63 142.2 37.09 142.2 36.235C142.2 35.395 141.48 34.84 140.43 34.84ZM139.815 30.715H141.03V32.785H139.815V30.715ZM144.03 39.43C146.85 39.43 148.545 40.27 148.545 41.785C148.545 43.285 146.85 44.14 144.03 44.14C141.18 44.14 139.5 43.285 139.5 41.785C139.5 40.27 141.18 39.43 144.03 39.43ZM144.03 40.39C141.945 40.39 140.73 40.885 140.73 41.785C140.73 42.685 141.945 43.195 144.03 43.195C146.085 43.195 147.315 42.685 147.315 41.785C147.315 40.885 146.085 40.39 144.03 40.39ZM24.585 51.45H25.575V53.265C25.575 55.29 24.405 57.42 22.41 58.305L21.735 57.33C23.52 56.55 24.585 54.795 24.585 53.265V51.45ZM24.78 51.45H25.77V53.265C25.77 54.765 26.79 56.295 28.53 56.97L27.855 57.915C25.905 57.135 24.78 55.26 24.78 53.265V51.45ZM31.98 50.625H33.165V58.98H31.98V50.625ZM29.82 54.24H32.385V55.26H29.82V54.24ZM29.07 50.88H30.255V58.545H29.07V50.88ZM28.71 59.28C31.5 59.28 33.24 60.18 33.24 61.725C33.24 63.255 31.5 64.14 28.71 64.14C25.905 64.14 24.195 63.255 24.195 61.725C24.195 60.18 25.905 59.28 28.71 59.28ZM28.71 60.255C26.67 60.255 25.41 60.795 25.41 61.725C25.41 62.64 26.67 63.18 28.71 63.18C30.75 63.18 31.995 62.64 31.995 61.725C31.995 60.795 30.75 60.255 28.71 60.255ZM35.6658 59.775H36.5508C38.6958 59.775 39.9708 59.73 41.4858 59.43L41.6208 60.465C40.0458 60.78 38.7258 60.825 36.5508 60.825H35.6658V59.775ZM35.6658 52.155H41.0058V53.175H36.8508V60.165H35.6658V52.155ZM36.4908 55.74H40.7958V56.745H36.4908V55.74ZM45.4608 50.61H46.6608V64.17H45.4608V50.61ZM43.3158 56.04H45.9108V57.075H43.3158V56.04ZM42.4758 50.895H43.6608V63.495H42.4758V50.895ZM53.3407 51.66H59.3407V52.68H53.3407V51.66ZM55.3807 54.69H56.6107V58.08H55.3807V54.69ZM58.8457 51.66H60.0757V52.38C60.0757 53.265 60.0757 54.615 59.7157 56.4L58.5007 56.265C58.8457 54.48 58.8457 53.25 58.8457 52.38V51.66ZM61.9207 50.61H63.1657V60.825H61.9207V50.61ZM62.5957 55.02H65.1007V56.055H62.5957V55.02ZM54.6007 62.85H63.6007V63.87H54.6007V62.85ZM54.6007 59.88H55.8307V63.165H54.6007V59.88ZM52.6507 58.665L52.5157 57.645C54.9307 57.645 58.2607 57.585 61.0057 57.21L61.0957 58.11C58.2757 58.605 55.0357 58.665 52.6507 58.665ZM66.7316 51.45H72.7316V52.47H66.7316V51.45ZM68.7716 54.39H70.0016V57.63H68.7716V54.39ZM72.2366 51.45H73.4516V52.185C73.4516 53.04 73.4516 54.255 73.1066 55.86L71.8916 55.755C72.2366 54.165 72.2366 53.04 72.2366 52.185V51.45ZM75.3116 50.61H76.5566V59.07H75.3116V50.61ZM75.9866 54.3H78.4916V55.35H75.9866V54.3ZM66.0566 58.14L65.9066 57.105C68.3666 57.105 71.6516 57.06 74.3966 56.7L74.4866 57.615C71.6816 58.08 68.4716 58.14 66.0566 58.14ZM72.1766 59.235C74.9666 59.235 76.6916 60.135 76.6916 61.68C76.6916 63.24 74.9666 64.14 72.1766 64.14C69.3866 64.14 67.6916 63.24 67.6916 61.68C67.6916 60.135 69.3866 59.235 72.1766 59.235ZM72.1766 60.21C70.1666 60.21 68.9366 60.75 68.9366 61.68C68.9366 62.61 70.1666 63.15 72.1766 63.15C74.2016 63.15 75.4166 62.61 75.4166 61.68C75.4166 60.75 74.2016 60.21 72.1766 60.21ZM84.6165 51.015H94.5765V51.99H84.6165V51.015ZM84.6765 54.57H94.5165V55.53H84.6765V54.57ZM86.6715 51.39H87.9165V55.2H86.6715V51.39ZM91.2915 51.39H92.5215V55.2H91.2915V51.39ZM83.4765 56.655H95.7315V57.66H83.4765V56.655ZM84.9615 58.845H94.1715V61.815H86.2215V63.45H84.9915V60.93H92.9415V59.775H84.9615V58.845ZM84.9915 63.075H94.5765V64.02H84.9915V63.075ZM107.112 50.61H108.297V59.85H107.112V50.61ZM104.937 54.15H107.487V55.17H104.937V54.15ZM104.127 50.865H105.297V58.665H104.127V50.865ZM97.4973 57.465H98.3673C100.287 57.465 101.697 57.405 103.332 57.06L103.467 58.065C101.757 58.41 100.332 58.47 98.3673 58.47H97.4973V57.465ZM97.4673 51.675H102.567V55.47H98.6973V58.125H97.4973V54.525H101.367V52.68H97.4673V51.675ZM103.182 59.235H104.232V59.58C104.232 61.965 101.787 63.645 99.0723 64.125L98.5773 63.15C100.962 62.79 103.182 61.335 103.182 59.58V59.235ZM103.347 59.235H104.412V59.58C104.412 61.335 106.632 62.79 109.017 63.15L108.522 64.125C105.807 63.645 103.347 61.965 103.347 59.58V59.235ZM110.258 57.435H122.513V58.455H110.258V57.435ZM115.763 55.62H116.993V57.96H115.763V55.62ZM111.398 51.03H121.358V52.05H111.398V51.03ZM111.458 54.885H121.298V55.905H111.458V54.885ZM113.453 51.48H114.698V55.545H113.453V51.48ZM118.073 51.48H119.303V55.545H118.073V51.48ZM111.758 59.715H121.013V63.99H111.758V59.715ZM119.798 60.705H112.988V62.985H119.798V60.705Z" fill="white"/>
<path d="M21.99 120V112.3H26.61V113.202H23.035V115.545H26.115V116.425H23.035V119.098H26.61V120H21.99ZM30.6426 120.132C29.9752 120.132 29.3849 119.974 28.8716 119.659C28.3582 119.336 27.9586 118.882 27.6726 118.295C27.3866 117.701 27.2436 116.997 27.2436 116.183C27.2436 115.398 27.3866 114.705 27.6726 114.104C27.9659 113.495 28.3766 113.022 28.9046 112.685C29.4399 112.34 30.0632 112.168 30.7746 112.168C31.1412 112.168 31.4749 112.205 31.7756 112.278C32.0762 112.344 32.3586 112.439 32.6226 112.564L32.3036 113.444C32.0762 113.334 31.8416 113.246 31.5996 113.18C31.3649 113.114 31.0862 113.081 30.7636 113.081C30.2942 113.081 29.8726 113.202 29.4986 113.444C29.1319 113.686 28.8422 114.034 28.6296 114.489C28.4169 114.944 28.3106 115.494 28.3106 116.139C28.3106 116.755 28.4132 117.294 28.6186 117.756C28.8312 118.218 29.1209 118.577 29.4876 118.834C29.8616 119.091 30.2869 119.219 30.7636 119.219C31.1229 119.219 31.4346 119.175 31.6986 119.087C31.9626 118.999 32.2192 118.885 32.4686 118.746L32.7876 119.615C32.5162 119.762 32.2046 119.886 31.8526 119.989C31.5079 120.084 31.1046 120.132 30.6426 120.132ZM36.6101 120.132C36.0381 120.132 35.5284 120.029 35.0811 119.824C34.6338 119.611 34.2524 119.325 33.9371 118.966C33.6291 118.599 33.3908 118.174 33.2221 117.69C33.0608 117.206 32.9801 116.689 32.9801 116.139C32.9801 115.384 33.1231 114.709 33.4091 114.115C33.7024 113.514 34.1204 113.041 34.6631 112.696C35.2058 112.344 35.8548 112.168 36.6101 112.168C37.1748 112.168 37.6808 112.271 38.1281 112.476C38.5828 112.681 38.9678 112.967 39.2831 113.334C39.5984 113.701 39.8368 114.122 39.9981 114.599C40.1668 115.076 40.2511 115.589 40.2511 116.139C40.2511 116.689 40.1668 117.206 39.9981 117.69C39.8368 118.174 39.5984 118.599 39.2831 118.966C38.9678 119.325 38.5864 119.611 38.1391 119.824C37.6918 120.029 37.1821 120.132 36.6101 120.132ZM36.6101 119.23C37.1748 119.23 37.6478 119.094 38.0291 118.823C38.4104 118.552 38.6964 118.185 38.8871 117.723C39.0851 117.254 39.1841 116.726 39.1841 116.139C39.1841 115.743 39.1254 115.362 39.0081 114.995C38.8908 114.628 38.7221 114.302 38.5021 114.016C38.2821 113.723 38.0108 113.492 37.6881 113.323C37.3728 113.154 37.0134 113.07 36.6101 113.07C36.0748 113.07 35.6128 113.206 35.2241 113.477C34.8428 113.748 34.5494 114.115 34.3441 114.577C34.1461 115.039 34.0471 115.56 34.0471 116.139C34.0471 116.535 34.1021 116.92 34.2121 117.294C34.3294 117.661 34.4981 117.991 34.7181 118.284C34.9381 118.577 35.2058 118.808 35.5211 118.977C35.8438 119.146 36.2068 119.23 36.6101 119.23ZM45.7551 120V113.224H43.3901V112.3H49.1651V113.224H46.8001V120H45.7551ZM52.7132 120.132C52.1412 120.132 51.6316 120.029 51.1842 119.824C50.7369 119.611 50.3556 119.325 50.0402 118.966C49.7322 118.599 49.4939 118.174 49.3252 117.69C49.1639 117.206 49.0832 116.689 49.0832 116.139C49.0832 115.384 49.2262 114.709 49.5122 114.115C49.8056 113.514 50.2236 113.041 50.7662 112.696C51.3089 112.344 51.9579 112.168 52.7132 112.168C53.2779 112.168 53.7839 112.271 54.2312 112.476C54.6859 112.681 55.0709 112.967 55.3862 113.334C55.7016 113.701 55.9399 114.122 56.1012 114.599C56.2699 115.076 56.3542 115.589 56.3542 116.139C56.3542 116.689 56.2699 117.206 56.1012 117.69C55.9399 118.174 55.7016 118.599 55.3862 118.966C55.0709 119.325 54.6896 119.611 54.2422 119.824C53.7949 120.029 53.2852 120.132 52.7132 120.132ZM52.7132 119.23C53.2779 119.23 53.7509 119.094 54.1322 118.823C54.5136 118.552 54.7996 118.185 54.9902 117.723C55.1882 117.254 55.2872 116.726 55.2872 116.139C55.2872 115.743 55.2286 115.362 55.1112 114.995C54.9939 114.628 54.8252 114.302 54.6052 114.016C54.3852 113.723 54.1139 113.492 53.7912 113.323C53.4759 113.154 53.1166 113.07 52.7132 113.07C52.1779 113.07 51.7159 113.206 51.3272 113.477C50.9459 113.748 50.6526 114.115 50.4472 114.577C50.2492 115.039 50.1502 115.56 50.1502 116.139C50.1502 116.535 50.2052 116.92 50.3152 117.294C50.4326 117.661 50.6012 117.991 50.8212 118.284C51.0412 118.577 51.3089 118.808 51.6242 118.977C51.9469 119.146 52.3099 119.23 52.7132 119.23ZM60.1674 120.132C59.2801 120.132 58.5834 119.868 58.0774 119.34C57.5714 118.812 57.3184 118.057 57.3184 117.074V112.3H58.3634V116.909C58.3634 117.642 58.5137 118.211 58.8144 118.614C59.1151 119.017 59.5661 119.219 60.1674 119.219C60.7907 119.219 61.2564 119.025 61.5644 118.636C61.8724 118.24 62.0264 117.664 62.0264 116.909V112.3H63.0384V117.03C63.0384 117.675 62.9174 118.233 62.6754 118.702C62.4407 119.164 62.1071 119.52 61.6744 119.769C61.2491 120.011 60.7467 120.132 60.1674 120.132ZM68.9325 120.132L67.9755 118.042C67.7335 117.521 67.4292 117.151 67.0625 116.931C66.6959 116.711 66.2265 116.601 65.6545 116.601H65.4895V120H64.4445V112.322C64.8332 112.285 65.2035 112.26 65.5555 112.245C65.9149 112.223 66.2962 112.212 66.6995 112.212C67.6382 112.212 68.3422 112.403 68.8115 112.784C69.2882 113.165 69.5265 113.657 69.5265 114.258C69.5265 114.793 69.3652 115.226 69.0425 115.556C68.7272 115.879 68.2689 116.121 67.6675 116.282C67.8655 116.37 68.0415 116.476 68.1955 116.601C68.3495 116.718 68.4962 116.88 68.6355 117.085C68.7822 117.283 68.9289 117.543 69.0755 117.866L69.9115 119.67L68.9325 120.132ZM65.4895 115.721H66.6995C67.2275 115.721 67.6565 115.604 67.9865 115.369C68.3165 115.134 68.4815 114.797 68.4815 114.357C68.4815 113.99 68.3275 113.69 68.0195 113.455C67.7115 113.213 67.2715 113.092 66.6995 113.092C66.4502 113.092 66.2265 113.096 66.0285 113.103C65.8305 113.11 65.6509 113.121 65.4895 113.136V115.721ZM74.4116 114.775H76.2926V115.534H74.4116V114.775ZM77.9536 110.914H78.8336V120.858H77.9536V110.914ZM75.9846 111.123H76.8536V120.363H75.9846V111.123ZM72.6186 111.739C73.9056 111.739 74.7416 113.07 74.7416 115.204C74.7416 117.338 73.9056 118.669 72.6186 118.669C71.3316 118.669 70.5066 117.338 70.5066 115.204C70.5066 113.07 71.3316 111.739 72.6186 111.739ZM72.6186 112.586C71.8376 112.586 71.3426 113.598 71.3426 115.204C71.3426 116.81 71.8376 117.822 72.6186 117.822C73.4106 117.822 73.9056 116.81 73.9056 115.204C73.9056 113.598 73.4106 112.586 72.6186 112.586ZM90.5436 110.914H91.4236V120.858H90.5436V110.914ZM88.8606 114.896H90.7746V115.655H88.8606V114.896ZM88.2886 111.134H89.1466V120.352H88.2886V111.134ZM83.3386 117.646H83.9876C85.4396 117.646 86.4296 117.591 87.5846 117.349L87.6726 118.108C86.4846 118.361 85.4836 118.405 83.9876 118.405H83.3386V117.646ZM83.3386 112.124H87.0346V112.872H84.2406V117.987H83.3386V112.124ZM92.6757 112.608H97.6037V113.356H92.6757V112.608ZM95.1397 114.016C96.3827 114.016 97.2847 114.951 97.2847 116.293C97.2847 117.624 96.3827 118.559 95.1397 118.559C93.9077 118.559 93.0057 117.624 93.0057 116.293C93.0057 114.951 93.9077 114.016 95.1397 114.016ZM95.1397 114.797C94.3807 114.797 93.8307 115.413 93.8307 116.293C93.8307 117.173 94.3807 117.789 95.1397 117.789C95.9097 117.789 96.4707 117.173 96.4707 116.293C96.4707 115.413 95.9097 114.797 95.1397 114.797ZM100.233 110.914H101.113V120.858H100.233V110.914ZM98.6487 115.094H100.53V115.853H98.6487V115.094ZM98.1097 111.134H98.9677V120.374H98.1097V111.134ZM94.6997 111.2H95.6017V113.07H94.6997V111.2ZM107.37 114.28H110.142V115.028H107.37V114.28ZM104.972 111.772H105.72V113.543C105.72 115.776 104.543 117.91 102.97 118.757L102.387 118.031C103.85 117.305 104.972 115.391 104.972 113.543V111.772ZM105.148 111.772H105.885V113.543C105.885 115.358 107.007 117.162 108.448 117.844L107.909 118.581C106.303 117.767 105.148 115.721 105.148 113.543V111.772ZM109.691 110.903H110.593V120.869H109.691V110.903ZM117.463 112.333H118.189V113.95C118.189 116.018 116.924 118.152 115.373 118.944L114.845 118.218C116.264 117.525 117.463 115.633 117.463 113.95V112.333ZM117.628 112.333H118.354V113.95C118.354 115.523 119.476 117.294 120.917 117.976L120.4 118.702C118.827 117.921 117.628 115.919 117.628 113.95V112.333ZM115.197 111.926H120.554V112.696H115.197V111.926ZM121.731 110.914H122.655V120.858H121.731V110.914ZM122.435 114.929H124.283V115.699H122.435V114.929ZM128.637 114.467H130.54V115.226H128.637V114.467ZM126.778 111.849H127.493V113.741C127.493 115.82 126.624 117.833 125.172 118.724L124.6 118.031C125.964 117.228 126.778 115.446 126.778 113.741V111.849ZM126.954 111.849H127.658V113.708C127.658 115.303 128.406 116.997 129.715 117.789L129.187 118.504C127.757 117.624 126.954 115.644 126.954 113.708V111.849ZM132.289 110.914H133.169V120.858H132.289V110.914ZM130.276 111.123H131.134V120.363H130.276V111.123ZM141.164 110.914H142.077V120.858H141.164V110.914ZM141.857 114.995H143.705V115.765H141.857V114.995ZM134.377 112.498H140.24V113.246H134.377V112.498ZM137.347 114.071C138.755 114.071 139.767 115.017 139.767 116.359C139.767 117.701 138.755 118.647 137.347 118.647C135.95 118.647 134.927 117.701 134.927 116.359C134.927 115.017 135.95 114.071 137.347 114.071ZM137.347 114.83C136.445 114.83 135.796 115.457 135.796 116.359C135.796 117.25 136.445 117.888 137.347 117.888C138.249 117.888 138.898 117.25 138.898 116.359C138.898 115.457 138.249 114.83 137.347 114.83ZM136.874 111.035H137.787V112.839H136.874V111.035ZM151.711 110.914H152.591V120.858H151.711V110.914ZM147.399 114.973H149.907V115.71H147.399V114.973ZM149.643 111.167H150.501V120.352H149.643V111.167ZM147.52 112.168H148.4C148.4 114.775 147.355 117.118 144.671 118.713L144.132 118.064C146.475 116.656 147.52 114.676 147.52 112.333V112.168ZM144.572 112.168H147.861V112.916H144.572V112.168ZM163.542 110.914H164.455V115.974H163.542V110.914ZM164.059 113.048H165.918V113.807H164.059V113.048ZM158.141 116.447H164.455V118.889H159.065V120.374H158.163V118.196H163.564V117.173H158.141V116.447ZM158.163 119.989H164.818V120.726H158.163V119.989ZM159.483 111.266C160.979 111.266 162.057 112.179 162.057 113.477C162.057 114.786 160.979 115.699 159.483 115.699C158.009 115.699 156.92 114.786 156.92 113.477C156.92 112.179 158.009 111.266 159.483 111.266ZM159.483 112.014C158.526 112.014 157.811 112.619 157.811 113.477C157.811 114.346 158.526 114.951 159.483 114.951C160.462 114.951 161.177 114.346 161.177 113.477C161.177 112.619 160.462 112.014 159.483 112.014ZM169.095 111.673C170.558 111.673 171.592 113.026 171.592 115.138C171.592 117.261 170.558 118.614 169.095 118.614C167.632 118.614 166.598 117.261 166.598 115.138C166.598 113.026 167.632 111.673 169.095 111.673ZM169.095 112.498C168.127 112.498 167.467 113.532 167.467 115.138C167.467 116.755 168.127 117.811 169.095 117.811C170.052 117.811 170.723 116.755 170.723 115.138C170.723 113.532 170.052 112.498 169.095 112.498ZM173.176 110.914H174.1V120.858H173.176V110.914ZM173.88 114.885H175.728V115.655H173.88V114.885ZM176.167 118.834H185.176V119.593H176.167V118.834ZM180.193 116.458H181.106V119.054H180.193V116.458ZM177.223 111.618H178.125V113.389H183.196V111.618H184.098V116.7H177.223V111.618ZM178.125 114.126V115.952H183.196V114.126H178.125ZM193.116 110.914H194.029V120.858H193.116V110.914ZM190.201 111.981H191.103C191.103 114.863 189.805 117.382 186.483 119.01L185.999 118.273C188.87 116.887 190.201 114.775 190.201 112.135V111.981ZM186.45 111.981H190.597V112.729H186.45V111.981Z" fill="white"/>
</g>
<defs>
<clipPath id="clip0_11_1035">
<rect width="359" height="186" rx="10" fill="white"/>
</clipPath>
</defs>
</svg>
