<svg xmlns="http://www.w3.org/2000/svg" width="31" height="23" viewBox="0 0 31 23" fill="none">
  <path d="M15.5 5.32833C11.5305 5.32833 8.31707 8.58667 8.31707 12.6117C8.31707 16.6367 11.5305 19.895 15.5 19.895C19.4695 19.895 22.6829 16.6367 22.6829 12.6117C22.6829 8.625 19.4695 5.32833 15.5 5.32833ZM15.5 18.3617C12.3622 18.3617 9.82927 15.7933 9.82927 12.6117C9.82927 9.43 12.3622 6.86167 15.5 6.86167C18.6378 6.86167 21.1707 9.43 21.1707 12.6117C21.1707 15.7933 18.6378 18.3617 15.5 18.3617ZM27.9756 3.795L22.3049 3.83333L19.9232 0.306666C19.772 0.115 19.5451 0 19.3183 0H11.6817C11.4549 0 11.228 0.115 11.0768 0.306666L8.69512 3.83333H3.02439C1.36098 3.83333 0 5.175 0 6.86167V19.9333C0 21.62 1.36098 23 3.02439 23H27.9756C29.639 23 31 21.62 31 19.9333V6.51667C31 4.83 29.639 3.795 27.9756 3.795ZM29.4878 19.9333C29.4878 20.7767 28.8073 21.4667 27.9756 21.4667H3.02439C2.19268 21.4667 1.5122 20.7767 1.5122 19.9333V6.86167C1.5122 6.01833 2.19268 5.36667 3.02439 5.36667H9.07317C9.3 5.36667 9.52683 5.25167 9.67805 5.06L12.0598 1.53333H18.9402L21.322 5.06C21.4732 5.25167 21.7 5.36667 21.9268 5.36667L27.9756 5.32833C28.8073 5.32833 29.4878 5.67333 29.4878 6.51667V19.9333Z" fill="#D9D9D9"/>
</svg>