<svg width="25" height="24" viewBox="0 0 25 24" fill="currentColor" xmlns="http://www.w3.org/2000/svg">
<path d="M15.6132 15.98C17.9128 15.98 19.777 14.1917 19.777 11.9857V5.99429C19.777 3.78831 17.9128 2 15.6132 2H5.20379C2.90419 2 1.04 3.78831 1.04 5.99429V18.4765C1.04 18.7522 1.27302 18.9757 1.56047 18.9757C1.698 18.975 1.82938 18.921 1.92481 18.826L4.0067 16.8288C4.60454 16.2704 5.41047 15.9648 6.24473 15.98H15.6132ZM21.8589 5.99429V13.9829C21.8589 16.1889 19.9947 17.9772 17.6951 17.9772H5.20379C5.20379 19.0802 6.13588 19.9743 7.28568 19.9743H18.7361C19.5676 19.9724 20.3657 20.2886 20.9533 20.8531L23.0352 22.8502C23.1306 22.9452 23.262 22.9992 23.3995 23C23.687 23 23.92 22.7765 23.92 22.5007V7.99144C23.9201 6.8962 23.0006 6.00525 21.8589 5.99429Z"/>
</svg>
