<svg width="25" height="24" viewBox="0 0 25 24" fill="currentColor" xmlns="http://www.w3.org/2000/svg">
<path d="M21.84 12.24V20C21.84 20.5523 21.3744 21 20.8 21H16.64C16.0656 21 15.6 20.5523 15.6 20V14.5C15.6 14.2239 15.3672 14 15.08 14H9.88C9.59281 14 9.36 14.2239 9.36 14.5V20C9.36 20.5523 8.89437 21 8.32 21H4.16C3.58562 21 3.12 20.5523 3.12 20V12.24C3.12073 11.4446 3.44992 10.6821 4.0352 10.12L11.1384 3.29C11.3321 3.10526 11.5936 3.0011 11.8664 3H13.0936C13.3664 3.0011 13.6279 3.10526 13.8216 3.29L20.9248 10.12C21.5101 10.6821 21.8393 11.4446 21.84 12.24Z"/>
</svg>
