<svg xmlns="http://www.w3.org/2000/svg" width="13" height="13" viewBox="0 0 13 13" fill="none">
<path d="M12.5208 0.125018H12.3083C12.1213 0.124082 11.9359 0.160193 11.7629 0.231268L8.62501 1.54168L5.61459 0.287934C5.35643 0.180567 5.07961 0.125204 4.80001 0.125018H3.95001C3.67041 0.125204 3.39359 0.180567 3.13543 0.287934L0.564176 1.35752C0.29728 1.46716 0.123564 1.72773 0.125009 2.01627V12.5209C0.125009 12.7165 0.283575 12.875 0.479176 12.875H0.691676C0.878712 12.876 1.06408 12.8398 1.23709 12.7688L4.37501 11.4584L7.38543 12.7121C7.64359 12.8195 7.92041 12.8748 8.20001 12.875H9.05001C9.32961 12.8748 9.60643 12.8195 9.86459 12.7121L12.4358 11.6425C12.7027 11.5329 12.8765 11.2723 12.875 10.9838V0.479184C12.875 0.283584 12.7164 0.125018 12.5208 0.125018ZM7.91668 11.4017L4.92043 10.1479L4.37501 9.92127V1.54168H4.80001C4.89257 1.5428 4.98402 1.56206 5.06917 1.59835L8.07959 2.8521L8.62501 3.07877V11.4584L8.20001 11.4584C8.10267 11.4591 8.00622 11.4398 7.91668 11.4017Z" fill="white"/>
</svg>