<svg xmlns="http://www.w3.org/2000/svg" width="30" height="30" viewBox="0 0 30 30" fill="none">
<circle cx="15" cy="15" r="15" fill="#D9D9D9"/>
<path d="M12.2439 11.7858C12.2439 10.0106 13.615 8.57153 15.3063 8.57153C16.9976 8.57153 18.3687 10.0106 18.3687 11.7858C18.3687 13.561 16.9976 15.0001 15.3063 15.0001C14.4941 15.0001 13.7152 14.6615 13.1409 14.0587C12.5665 13.4559 12.2439 12.6383 12.2439 11.7858ZM21.3468 20.2635L20.2444 17.9412C19.8548 17.1222 19.057 16.6054 18.1849 16.6072H12.4276C11.5556 16.6054 10.7577 17.1222 10.3682 17.9412L9.26574 20.2635C9.14633 20.5122 9.15814 20.8081 9.29695 21.0455C9.43575 21.2828 9.68177 21.4278 9.94712 21.4287H20.6655C20.9308 21.4278 21.1768 21.2828 21.3156 21.0455C21.4544 20.8081 21.4662 20.5122 21.3468 20.2635Z" fill="#676767"/>
</svg>