<svg xmlns="http://www.w3.org/2000/svg" width="15" height="15" viewBox="0 0 15 15" fill="none">
  <path d="M7.5 1.25C4.04822 1.25 1.25 4.04822 1.25 7.5C1.25 10.9518 4.04822 13.75 7.5 13.75C10.9518 13.75 13.75 10.9518 13.75 7.5C13.75 5.8424 13.0915 4.25269 11.9194 3.08058C10.7473 1.90848 9.1576 1.25 7.5 1.25ZM7.5 12.5C4.73858 12.5 2.5 10.2614 2.5 7.5C2.5 4.73858 4.73858 2.5 7.5 2.5C10.2614 2.5 12.5 4.73858 12.5 7.5C12.5 8.82608 11.9732 10.0979 11.0355 11.0355C10.0979 11.9732 8.82608 12.5 7.5 12.5ZM8.05 7.275V4.0625C8.05 3.88991 7.91009 3.75 7.7375 3.75H7.2625C7.08991 3.75 6.95 3.88991 6.95 4.0625V7.6C6.95307 7.68201 6.98648 7.75996 7.04375 7.81875L9.54375 10.3188C9.66738 10.4386 9.86386 10.4386 9.9875 10.3188L10.3187 9.9875C10.4386 9.86387 10.4386 9.66738 10.3187 9.54375L8.05 7.275Z" fill="#91EB86"/>
</svg>