<svg xmlns="http://www.w3.org/2000/svg" width="15" height="15" viewBox="0 0 15 15" fill="none">
  <g clip-path="url(#clip0_409_43)">
    <path d="M13.0469 12.1627L10.5469 9.65964C10.4659 9.57665 10.3757 9.50317 10.2781 9.44063L9.65312 9.00886C10.9387 7.41623 10.9506 5.14437 9.68187 3.53828C8.4131 1.9322 6.20224 1.42053 4.35819 2.3062C2.51413 3.19187 1.52902 5.2385 1.98608 7.23444C2.44314 9.23037 4.22038 10.6429 6.26562 10.6358C7.25815 10.6361 8.22128 10.2985 8.99687 9.67841L9.46562 10.3042C9.52122 10.3848 9.58398 10.4602 9.65312 10.5294L12.1531 13.0325C12.2118 13.0917 12.2917 13.125 12.375 13.125C12.4583 13.125 12.5382 13.0917 12.5969 13.0325L13.0344 12.5944C13.153 12.4769 13.1585 12.2868 13.0469 12.1627ZM6.26562 9.38431C4.53973 9.38431 3.14062 7.98351 3.14062 6.25554C3.14062 4.52757 4.53973 3.12678 6.26562 3.12678C7.99151 3.12678 9.39062 4.52757 9.39062 6.25554C9.39062 7.08534 9.06138 7.88116 8.47533 8.46791C7.88928 9.05467 7.09442 9.38431 6.26562 9.38431Z" fill="#91EB86"/>
  </g>
  <defs>
    <clipPath id="clip0_409_43">
      <rect width="15" height="15" fill="white"/>
    </clipPath>
  </defs>
</svg>