<svg width="25" height="22" viewBox="0 0 25 22" fill="#676767" xmlns="http://www.w3.org/2000/svg">
<path d="M21.71 17.4602L17.55 13.4554C17.4152 13.3226 17.2652 13.2051 17.1028 13.105L16.0628 12.4142C18.202 9.86596 18.2219 6.23099 16.1106 3.66125C13.9994 1.09151 10.3205 0.272842 7.25202 1.68991C4.18351 3.10699 2.54429 6.38161 3.30484 9.5751C4.06538 12.7686 7.02271 15.0287 10.426 15.0173C12.0776 15.0178 13.6802 14.4776 14.9708 13.4855L15.7508 14.4867C15.8433 14.6156 15.9477 14.7362 16.0628 14.8471L20.2228 18.8519C20.3204 18.9467 20.4533 19 20.592 19C20.7306 19 20.8636 18.9467 20.9612 18.8519L21.6892 18.1511C21.8866 17.9631 21.8958 17.6589 21.71 17.4602ZM10.426 13.0149C7.55411 13.0149 5.226 10.7736 5.226 8.00887C5.226 5.24411 7.55411 3.00284 10.426 3.00284C13.2979 3.00284 15.626 5.24411 15.626 8.00887C15.626 9.33655 15.0781 10.6099 14.103 11.5487C13.1278 12.4875 11.8051 13.0149 10.426 13.0149Z"/>
</svg>
