<svg xmlns="http://www.w3.org/2000/svg" width="17" height="22" viewBox="0 0 17 22" fill="none">
  <path d="M14.1667 19C13.3796 19 12.7106 18.7229 12.1597 18.1687C11.6088 17.6146 11.3333 16.9417 11.3333 16.15C11.3333 16.0392 11.3412 15.9242 11.3569 15.8051C11.3727 15.6861 11.3963 15.5794 11.4278 15.485L4.76944 11.59C4.50185 11.8275 4.20278 12.0137 3.87222 12.1486C3.54167 12.2835 3.19537 12.3506 2.83333 12.35C2.0463 12.35 1.37731 12.0729 0.826389 11.5188C0.275463 10.9646 0 10.2917 0 9.5C0 8.70833 0.275463 8.03542 0.826389 7.48125C1.37731 6.92708 2.0463 6.65 2.83333 6.65C3.19537 6.65 3.54167 6.71745 3.87222 6.85235C4.20278 6.98725 4.50185 7.17313 4.76944 7.41L11.4278 3.515C11.3963 3.42 11.3727 3.31328 11.3569 3.19485C11.3412 3.07642 11.3333 2.96147 11.3333 2.85C11.3333 2.05833 11.6088 1.38542 12.1597 0.83125C12.7106 0.277083 13.3796 0 14.1667 0C14.9537 0 15.6227 0.277083 16.1736 0.83125C16.7245 1.38542 17 2.05833 17 2.85C17 3.64167 16.7245 4.31458 16.1736 4.86875C15.6227 5.42292 14.9537 5.7 14.1667 5.7C13.8046 5.7 13.4583 5.63287 13.1278 5.4986C12.7972 5.36433 12.4981 5.17813 12.2306 4.94L5.57222 8.835C5.6037 8.93 5.62732 9.03703 5.64306 9.1561C5.6588 9.27517 5.66667 9.3898 5.66667 9.5C5.66667 9.61083 5.6588 9.72578 5.64306 9.84485C5.62732 9.96392 5.6037 10.0706 5.57222 10.165L12.2306 14.06C12.4981 13.8225 12.7972 13.6366 13.1278 13.5023C13.4583 13.3681 13.8046 13.3006 14.1667 13.3C14.9537 13.3 15.6227 13.5771 16.1736 14.1312C16.7245 14.6854 17 15.3583 17 16.15C17 16.9417 16.7245 17.6146 16.1736 18.1687C15.6227 18.7229 14.9537 19 14.1667 19Z" fill="#333333"/>
</svg>