<svg xmlns="http://www.w3.org/2000/svg" width="23" height="21" viewBox="0 0 23 21" fill="black">
<path d="M12.397 0.687011L14.976 5.91201C15.0478 6.0574 15.1538 6.18316 15.285 6.27845C15.4162 6.37374 15.5686 6.43571 15.729 6.45901L21.495 7.29701C21.6797 7.32383 21.8533 7.40181 21.9959 7.52212C22.1386 7.64242 22.2448 7.80026 22.3024 7.97777C22.3601 8.15528 22.3669 8.34538 22.3221 8.52657C22.2773 8.70775 22.1827 8.87279 22.049 9.00301L17.876 13.07C17.64 13.3 17.533 13.631 17.588 13.955L18.573 19.698C18.6046 19.8819 18.584 20.071 18.5137 20.2438C18.4433 20.4166 18.3261 20.5663 18.1751 20.676C18.0242 20.7856 17.8455 20.8509 17.6594 20.8643C17.4733 20.8777 17.2872 20.8388 17.122 20.752L11.964 18.04C11.8204 17.9647 11.6607 17.9253 11.4985 17.9253C11.3364 17.9253 11.1766 17.9647 11.033 18.04L5.87504 20.752C5.70989 20.8388 5.52375 20.8777 5.33765 20.8643C5.15156 20.8509 4.97293 20.7856 4.82197 20.676C4.67101 20.5663 4.55374 20.4166 4.48342 20.2438C4.4131 20.071 4.39253 19.8819 4.42404 19.698L5.40904 13.955C5.43646 13.7952 5.42457 13.6311 5.3744 13.4769C5.32422 13.3227 5.23727 13.1831 5.12104 13.07L0.948042 9.00301C0.814339 8.87279 0.719746 8.70775 0.674964 8.52657C0.630183 8.34538 0.637 8.15528 0.694644 7.97777C0.752289 7.80026 0.85846 7.64242 1.00115 7.52212C1.14383 7.40181 1.31734 7.32383 1.50204 7.29701L7.26804 6.45901C7.4285 6.43571 7.58088 6.37374 7.71206 6.27845C7.84324 6.18316 7.94928 6.0574 8.02104 5.91201L10.6 0.687011C10.97 -0.0559893 12.03 -0.0559893 12.397 0.687011Z"/>
</svg>