<svg width="28" height="28" viewBox="0 0 28 28" fill="none" xmlns="http://www.w3.org/2000/svg">
<rect width="28" height="28" fill="#F5F5F5"/>
<g clip-path="url(#clip0_0_1)">
<rect x="-181" y="-758" width="390" height="878" rx="35" fill="white"/>
<g clip-path="url(#clip1_0_1)">
<circle cx="14" cy="14" r="13.75" fill="white" stroke="#333333" stroke-width="0.5"/>
<g clip-path="url(#clip2_0_1)">
<path d="M14.3541 20.6666H13.6458C13.4502 20.6666 13.2916 20.5173 13.2916 20.3333L13.2916 9.55325L10.1466 12.5199C10.0801 12.583 9.98958 12.6185 9.89515 12.6185C9.80072 12.6185 9.71019 12.583 9.64369 12.5199L9.14786 12.0466C9.08081 11.984 9.0431 11.8988 9.0431 11.8099C9.0431 11.721 9.08081 11.6358 9.14786 11.5733L13.4899 7.47992C13.5895 7.38612 13.7245 7.33337 13.8654 7.33325H14.1345C14.2751 7.33479 14.4096 7.38733 14.5099 7.47992L18.852 11.5733C18.9191 11.6358 18.9568 11.721 18.9568 11.8099C18.9568 11.8988 18.9191 11.984 18.852 12.0466L18.3491 12.5199C18.2838 12.5826 18.1945 12.618 18.1012 12.618C18.0079 12.618 17.9186 12.5826 17.8533 12.5199L14.7083 9.55325L14.7083 20.3333C14.7083 20.5173 14.5497 20.6666 14.3541 20.6666Z" fill="#333333"/>
</g>
</g>
</g>
<defs>
<clipPath id="clip0_0_1">
<rect x="-181" y="-758" width="390" height="878" rx="35" fill="white"/>
</clipPath>
<clipPath id="clip1_0_1">
<rect width="28" height="28" fill="white"/>
</clipPath>
<clipPath id="clip2_0_1">
<rect width="16" height="17" fill="white" transform="matrix(0 1 -1 0 22.5 6)"/>
</clipPath>
</defs>
</svg>
