<svg xmlns="http://www.w3.org/2000/svg" width="10" height="10" viewBox="0 0 10 10" fill="none">
<g clip-path="url(#clip0_248_71)">
<path d="M6.25539 6.65826C7.1767 6.65826 7.92357 5.91314 7.92357 4.99397V2.49754C7.92357 1.57838 7.1767 0.833252 6.25539 0.833252H2.08493C1.16362 0.833252 0.416748 1.57838 0.416748 2.49754V7.69844C0.416748 7.81334 0.510107 7.90648 0.625271 7.90648C0.68037 7.90616 0.733005 7.88365 0.771237 7.84407L1.60533 7.01192C1.84485 6.77926 2.16774 6.65191 2.50198 6.65826H6.25539ZM8.75766 2.49754V5.82612C8.75766 6.74528 8.01079 7.49041 7.08948 7.49041H2.08493C2.08493 7.94999 2.45837 8.32255 2.91902 8.32255H7.50653C7.83968 8.32174 8.15941 8.45352 8.39483 8.6887L9.22893 9.52084C9.26716 9.56043 9.31979 9.58293 9.37489 9.58325C9.49006 9.58325 9.58342 9.49011 9.58342 9.37522V3.32969C9.58344 2.87334 9.21506 2.5021 8.75766 2.49754Z" fill="white"/>
</g>
<defs>
<clipPath id="clip0_248_71">
<rect width="10" height="10" fill="white"/>
</clipPath>
</defs>
</svg>