<svg xmlns="http://www.w3.org/2000/svg" width="10" height="10" viewBox="0 0 7 7" fill="none">
<g clip-path="url(#clip0_248_66)">
<path d="M3.13057 1.81577L3.49992 2.22054L3.86926 1.81577C4.11434 1.54719 4.45698 1.38846 4.8201 1.37503C5.42638 1.37916 5.91659 1.87192 5.91659 2.47917C5.91659 2.87008 5.66746 3.35561 5.24995 3.88257C4.91332 4.30744 4.52467 4.69083 4.20621 5.00499C4.14134 5.06898 4.07938 5.1301 4.02137 5.18811L3.49992 5.70956L2.97847 5.18811C2.92046 5.1301 2.8585 5.06898 2.79363 5.00499C2.47517 4.69083 2.08652 4.30744 1.74989 3.88257C1.33238 3.35561 1.08325 2.87008 1.08325 2.47917C1.08325 1.87192 1.57346 1.37916 2.17973 1.37503C2.54285 1.38846 2.8855 1.54719 3.13057 1.81577ZM3.35637 5.85311C3.35642 5.85306 3.35647 5.85301 3.35652 5.85296L3.35637 5.85311ZM3.64332 5.85296C3.64344 5.85308 3.64357 5.85321 3.64369 5.85333L3.64347 5.85311L3.64332 5.85296Z" fill="white" stroke="white"/>
</g>
<defs>
<clipPath id="clip0_248_66">
<rect width="10" height="10" fill="white"/>
</clipPath>
</defs>
</svg>